<?xml version="1.0" encoding="utf-8" ?>
<svg xmlns="http://www.w3.org/2000/svg" xmlns:xlink="http://www.w3.org/1999/xlink" width="20" height="20" viewBox="0 0 32 32">
	<defs>
		<clipPath id="clipPath6121143197">
			<path d="M0 0L32 0L32 32L0 32L0 0Z" fill-rule="nonzero" transform="matrix(1 0 0 1 0 0)"/>
		</clipPath>
	</defs>
	<g clip-path="url(#clipPath6121143197)">
		<defs>
			<clipPath id="clipPath2429775987">
				<path d="M0 0L32 0L32 32L0 32L0 0Z" fill-rule="nonzero" transform="matrix(1 0 0 1 -0 -0)"/>
			</clipPath>
		</defs>
		<g clip-path="url(#clipPath2429775987)">
			<path d="M-1.33333 0C-1.33333 0.736373 -0.736373 1.33333 0 1.33333L12 1.33333C12.7364 1.33333 13.3333 0.736373 13.3333 0C13.3333 -0.736373 12.7364 -1.33333 12 -1.33333L0 -1.33333C-0.736373 -1.33333 -1.33333 -0.736373 -1.33333 0Z" fill-rule="evenodd" transform="matrix(1 0 0 1 16 26.6667)" fill="rgb(0, 0, 0)"/>
			<path d="M17.0572 -0.114383Q18.2761 -1.33333 20 -1.33333Q21.7239 -1.33333 22.9428 -0.114381Q24.1618 1.10457 24.1618 2.82843Q24.1618 4.55229 22.9428 5.77124L6.27614 22.4379Q6.015 22.699 5.65671 22.7886L0.323381 24.122Q0.259834 24.1378 0.195036 24.1474Q0.130238 24.157 0.0648134 24.1602Q-0.000611611 24.1634 -0.0660337 24.1601Q-0.131456 24.1569 -0.196245 24.1472Q-0.261034 24.1376 -0.324566 24.1217Q-0.388098 24.1057 -0.449762 24.0836Q-0.511425 24.0615 -0.570626 24.0335Q-0.629826 24.0055 -0.685994 23.9718Q-0.742162 23.9381 -0.794756 23.899Q-0.84735 23.86 -0.895864 23.816Q-0.944378 23.7719 -0.988345 23.7234Q-1.03231 23.6748 -1.07131 23.6222Q-1.1103 23.5696 -1.14395 23.5134Q-1.1776 23.4572 -1.20558 23.3979Q-1.23356 23.3387 -1.2556 23.277Q-1.27764 23.2154 -1.29352 23.1518Q-1.37437 22.8284 -1.29352 22.505L0.0398101 17.1717Q0.129382 16.8134 0.390524 16.5523L17.0572 -0.114381L17.0572 -0.114383ZM18.9428 1.77124L2.27614 18.4379L1.33333 17.4951L2.62686 17.8185L1.29352 23.1518L0 22.8284L-0.323381 21.5349L5.00995 20.2016L5.33333 21.4951L4.39052 20.5523L21.0572 3.88562Q21.4951 3.44771 21.4951 2.82843Q21.4951 2.20914 21.0572 1.77124Q20.6193 1.33333 20 1.33333Q19.3807 1.33333 18.9428 1.77124L18.9428 1.77124Z" fill-rule="nonzero" transform="matrix(1 0 0 1 4 3.83824)" fill="rgb(0, 0, 0)"/>
		</g>
	</g>
</svg>
